<svg id="Layer_1" data-name="Layer 1" xmlns="http://www.w3.org/2000/svg" xmlns:xlink="http://www.w3.org/1999/xlink" viewBox="0 0 140 30"><defs><style>.cls-1{fill:#fff;}.cls-2{fill:url(#linear-gradient);}</style><linearGradient id="linear-gradient" x1="92.48" y1="19.5" x2="71.12" y2="7.17" gradientUnits="userSpaceOnUse"><stop offset="0" stop-color="#ff0f11"/><stop offset="1" stop-color="#c60b0d"/></linearGradient></defs><path class="cls-1" d="M.36,6.11H6.9a5.77,5.77,0,0,1,2,.34,5.08,5.08,0,0,1,1.6.9,4.17,4.17,0,0,1,1.06,1.31A3.48,3.48,0,0,1,12,10.22a3.64,3.64,0,0,1-.64,2.21,4.08,4.08,0,0,1-1.52,1.3V14a4.4,4.4,0,0,1,2,1.44,3.9,3.9,0,0,1,.73,2.39A4,4,0,0,1,11,21a5.13,5.13,0,0,1-1.73.88,7.47,7.47,0,0,1-2.16.3H.36Zm6.2,6.38A2.27,2.27,0,0,0,8,12.07a1.51,1.51,0,0,0,.52-1.22A1.49,1.49,0,0,0,8,9.64a2.12,2.12,0,0,0-1.37-.43H3.86v3.28Zm.29,6.57c1.45,0,2.18-.6,2.18-1.8s-.76-1.8-2.27-1.8H3.86v3.6Z"/><path class="cls-1" d="M21.12,21.21H20.9a5,5,0,0,1-1.23,1,3.64,3.64,0,0,1-1.76.38,4.41,4.41,0,0,1-1.56-.27,4,4,0,0,1-1.29-.76,3.67,3.67,0,0,1-.86-1.19,3.74,3.74,0,0,1-.32-1.55,3.46,3.46,0,0,1,.34-1.52,3.66,3.66,0,0,1,.92-1.18,4.19,4.19,0,0,1,1.38-.76,5.49,5.49,0,0,1,1.75-.27,8.63,8.63,0,0,1,1.67.13,9,9,0,0,1,1.18.32v-.3A1.56,1.56,0,0,0,20.53,14a2.41,2.41,0,0,0-1.61-.51,3.27,3.27,0,0,0-2.52,1.19l-2.29-1.61a6.08,6.08,0,0,1,2.19-1.68,6.69,6.69,0,0,1,2.75-.55A6,6,0,0,1,23.12,12a4.62,4.62,0,0,1,1.37,3.66V22.2H21.12Zm0-3.34a5.71,5.71,0,0,0-1-.32,5.19,5.19,0,0,0-1.05-.11,2,2,0,0,0-1.34.37,1.24,1.24,0,0,0,0,1.89,1.75,1.75,0,0,0,1.13.34,2.48,2.48,0,0,0,1-.19,2.11,2.11,0,0,0,.73-.5,2.08,2.08,0,0,0,.43-.71A2.15,2.15,0,0,0,21.12,17.87Z"/><path class="cls-1" d="M30,12.58h.22a3.75,3.75,0,0,1,3.37-1.75,3.61,3.61,0,0,1,3.08,1.33,5.6,5.6,0,0,1,1,3.48V22.2H34.29V16a2.35,2.35,0,0,0-.43-1.47A1.53,1.53,0,0,0,32.54,14a2,2,0,0,0-1.74.87,4,4,0,0,0-.6,2.3V22.2H26.83v-11H30Z"/><path class="cls-1" d="M45.17,27.42A7,7,0,0,1,43,27.11a6.3,6.3,0,0,1-1.65-.78,5.56,5.56,0,0,1-1.17-1.08A4.47,4.47,0,0,1,39.53,24l3.23-1.28a2.38,2.38,0,0,0,1,1.27,2.64,2.64,0,0,0,1.42.42,2.56,2.56,0,0,0,2-.79,3.11,3.11,0,0,0,.76-2.24v-.61h-.23a3.66,3.66,0,0,1-3.15,1.39,4.74,4.74,0,0,1-1.86-.39A5.4,5.4,0,0,1,41,20.69,5.5,5.5,0,0,1,39.8,18.9a6,6,0,0,1-.45-2.38,6.06,6.06,0,0,1,.45-2.39A5.35,5.35,0,0,1,41,12.35a5.44,5.44,0,0,1,1.66-1.13,4.74,4.74,0,0,1,1.86-.39,3.69,3.69,0,0,1,3.15,1.39h.23v-1h3.23V21.26a7.33,7.33,0,0,1-.41,2.48,5.66,5.66,0,0,1-1.2,2A5.35,5.35,0,0,1,47.64,27,6.51,6.51,0,0,1,45.17,27.42Zm.13-8.27a2.69,2.69,0,0,0,.93-.17,2.57,2.57,0,0,0,.84-.5,2.4,2.4,0,0,0,.59-.82,3,3,0,0,0,0-2.29,2.5,2.5,0,0,0-.59-.82,2.54,2.54,0,0,0-.84-.49,2.47,2.47,0,0,0-.93-.17,2.55,2.55,0,0,0-.93.17,2.46,2.46,0,0,0-1.43,1.31,3.09,3.09,0,0,0,0,2.29,2.3,2.3,0,0,0,.6.82,2.43,2.43,0,0,0,.83.5A2.77,2.77,0,0,0,45.3,19.15Z"/><path class="cls-1" d="M53.64,22.2V6.11H57V22.2Z"/><path class="cls-1" d="M66,21.21H65.8a5,5,0,0,1-1.23,1,3.64,3.64,0,0,1-1.76.38,4.41,4.41,0,0,1-1.56-.27A4,4,0,0,1,60,21.53a3.67,3.67,0,0,1-.86-1.19,3.74,3.74,0,0,1-.32-1.55,3.46,3.46,0,0,1,.34-1.52A3.66,3.66,0,0,1,60,16.09a4.19,4.19,0,0,1,1.38-.76,5.49,5.49,0,0,1,1.75-.27,8.63,8.63,0,0,1,1.67.13,9,9,0,0,1,1.18.32v-.3A1.56,1.56,0,0,0,65.43,14a2.41,2.41,0,0,0-1.61-.51,3.27,3.27,0,0,0-2.52,1.19L59,13.06a6.08,6.08,0,0,1,2.19-1.68A6.69,6.69,0,0,1,64,10.83,6,6,0,0,1,68,12a4.62,4.62,0,0,1,1.37,3.66V22.2H66Zm0-3.34a5.71,5.71,0,0,0-1-.32,5.19,5.19,0,0,0-1-.11,2.07,2.07,0,0,0-1.35.37,1.2,1.2,0,0,0-.44,1,1.17,1.17,0,0,0,.42.94,1.75,1.75,0,0,0,1.13.34,2.48,2.48,0,0,0,1-.19,2.11,2.11,0,0,0,.73-.5,2.08,2.08,0,0,0,.43-.71A2.15,2.15,0,0,0,66,17.87Z"/><path class="cls-2" d="M78.13,22.56a7.26,7.26,0,0,1-2.65-.46,5.35,5.35,0,0,1-2-1.36,6.09,6.09,0,0,1-1.28-2.19,9,9,0,0,1-.45-3V6.11h3.5v9.71A3.89,3.89,0,0,0,76,18.27a2.88,2.88,0,0,0,4.31,0A3.94,3.94,0,0,0,81,15.82V6.11h3.51V15.6a8.39,8.39,0,0,1-.45,2.8,6.52,6.52,0,0,1-1.28,2.21,5.79,5.79,0,0,1-2,1.43A6.46,6.46,0,0,1,78.13,22.56ZM87.41,6.11h3.51V22.2H87.41Z"/><path class="cls-1" d="M94.16,6.11h10.6V9.44h-7.1v3.23H104V16H97.66v6.2h-3.5Z"/><path class="cls-1" d="M111.37,10.83a6.36,6.36,0,0,1,2.37.44,5.78,5.78,0,0,1,1.89,1.21,5.4,5.4,0,0,1,1.23,1.86,6,6,0,0,1,.44,2.36,6.08,6.08,0,0,1-.44,2.36,5.35,5.35,0,0,1-1.23,1.85,5.62,5.62,0,0,1-1.89,1.21,6.6,6.6,0,0,1-4.74,0,5.62,5.62,0,0,1-1.89-1.21,5.35,5.35,0,0,1-1.23-1.85,6.08,6.08,0,0,1-.44-2.36,6,6,0,0,1,.44-2.36,5.4,5.4,0,0,1,1.23-1.86A5.78,5.78,0,0,1,109,11.27,6.36,6.36,0,0,1,111.37,10.83Zm0,8.59a2.53,2.53,0,0,0,1-.2,2.4,2.4,0,0,0,1.38-1.39,3.11,3.11,0,0,0,.2-1.13,3.08,3.08,0,0,0-.2-1.13,2.54,2.54,0,0,0-1.38-1.4,2.52,2.52,0,0,0-1-.19,2.48,2.48,0,0,0-1,.19,2.52,2.52,0,0,0-.82.55,2.47,2.47,0,0,0-.56.85,3.08,3.08,0,0,0-.2,1.13,3.11,3.11,0,0,0,.2,1.13,2.42,2.42,0,0,0,.56.86,2.46,2.46,0,0,0,.82.53A2.49,2.49,0,0,0,111.37,19.42Z"/><path class="cls-1" d="M122.11,12.58h.22a3.77,3.77,0,0,1,3.38-1.75,3.63,3.63,0,0,1,3.08,1.33,5.6,5.6,0,0,1,1,3.48V22.2h-3.37V16a2.42,2.42,0,0,0-.43-1.47,1.56,1.56,0,0,0-1.33-.57,2,2,0,0,0-1.74.87,4,4,0,0,0-.6,2.3V22.2H119v-11h3.15Z"/><path class="cls-1" d="M132.88,14h-1.94V11.19h1.94V7.82h3.37v3.37H139V14h-2.72v3.84a2.38,2.38,0,0,0,.09.68,1.13,1.13,0,0,0,.31.53,1.29,1.29,0,0,0,.88.3,1.72,1.72,0,0,0,.6-.09,1.58,1.58,0,0,0,.43-.22L139.5,22a5.92,5.92,0,0,1-1.25.42,6.05,6.05,0,0,1-1.44.16,3.76,3.76,0,0,1-2.81-1,3.7,3.7,0,0,1-.83-1.37,5.15,5.15,0,0,1-.29-1.8Z"/></svg>