<svg id="Layer_1" data-name="Layer 1" xmlns="http://www.w3.org/2000/svg" xmlns:xlink="http://www.w3.org/1999/xlink" viewBox="0 0 140 30"><defs><style>.cls-1{fill:#fff;}.cls-2{fill:url(#linear-gradient);}</style><linearGradient id="linear-gradient" x1="139.39" y1="8.65" x2="121.25" y2="19.12" gradientUnits="userSpaceOnUse"><stop offset="0" stop-color="#ff0f11"/><stop offset="1" stop-color="#c60b0d"/></linearGradient></defs><path class="cls-1" d="M.33,6h6.6a5.85,5.85,0,0,1,2,.34,5.27,5.27,0,0,1,1.62.9,4.25,4.25,0,0,1,1.07,1.33A3.42,3.42,0,0,1,12,10.12a3.67,3.67,0,0,1-.65,2.22,4.16,4.16,0,0,1-1.53,1.32v.23a4.31,4.31,0,0,1,2,1.45,3.88,3.88,0,0,1,.74,2.4A4,4,0,0,1,11.05,21a5.35,5.35,0,0,1-1.75.89,7.63,7.63,0,0,1-2.19.3H.33Zm6.26,6.44A2.2,2.2,0,0,0,8.06,12a1.51,1.51,0,0,0,.53-1.23,1.49,1.49,0,0,0-.53-1.22A2.07,2.07,0,0,0,6.68,9.1H3.87v3.31ZM6.88,19c1.47,0,2.21-.61,2.21-1.82s-.77-1.81-2.3-1.81H3.87V19Z"/><path class="cls-1" d="M21.29,21.22h-.22a5.26,5.26,0,0,1-1.24,1,3.61,3.61,0,0,1-1.78.39,4.34,4.34,0,0,1-1.58-.28,3.82,3.82,0,0,1-1.29-.77,3.66,3.66,0,0,1-.88-1.2A3.79,3.79,0,0,1,14,18.76a3.4,3.4,0,0,1,.34-1.53A3.47,3.47,0,0,1,15.26,16a4.26,4.26,0,0,1,1.39-.77A5.55,5.55,0,0,1,18.41,15a7.88,7.88,0,0,1,2.88.45v-.29a1.57,1.57,0,0,0-.6-1.24,2.42,2.42,0,0,0-1.62-.51,3.29,3.29,0,0,0-2.54,1.2L14.21,13a6.09,6.09,0,0,1,2.22-1.69,6.8,6.8,0,0,1,2.78-.56A6,6,0,0,1,23.31,12a4.6,4.6,0,0,1,1.39,3.68v6.58H21.29Zm0-3.39a6.72,6.72,0,0,0-1-.31,4.57,4.57,0,0,0-1.05-.12,2.13,2.13,0,0,0-1.37.38,1.19,1.19,0,0,0-.45,1,1.13,1.13,0,0,0,.43.94A1.73,1.73,0,0,0,19,20a2.53,2.53,0,0,0,1-.2,2.17,2.17,0,0,0,.73-.51,2.14,2.14,0,0,0,.45-.71A2.48,2.48,0,0,0,21.29,17.83Z"/><path class="cls-1" d="M30.23,12.5h.23a3.78,3.78,0,0,1,3.4-1.77A3.66,3.66,0,0,1,37,12.07a5.66,5.66,0,0,1,1,3.52v6.62h-3.4V16a2.38,2.38,0,0,0-.43-1.48,1.55,1.55,0,0,0-1.34-.58,2,2,0,0,0-1.76.88,4.08,4.08,0,0,0-.6,2.32v5.1h-3.4V11.09h3.17Z"/><path class="cls-1" d="M45.57,27.48a6.8,6.8,0,0,1-2.15-.31,6.46,6.46,0,0,1-1.67-.79,5.18,5.18,0,0,1-1.18-1.09,4.56,4.56,0,0,1-.69-1.22l3.27-1.29a2.4,2.4,0,0,0,1,1.28,2.7,2.7,0,0,0,1.43.42,2.63,2.63,0,0,0,2-.79,3.15,3.15,0,0,0,.76-2.27v-.61h-.23a3.67,3.67,0,0,1-3.17,1.4A4.85,4.85,0,0,1,43,21.82a5.56,5.56,0,0,1-1.68-1.14,5.46,5.46,0,0,1-1.2-1.8,6.13,6.13,0,0,1-.45-2.41,6.11,6.11,0,0,1,.45-2.4,5.5,5.5,0,0,1,1.2-1.81A5.35,5.35,0,0,1,43,11.13a4.69,4.69,0,0,1,1.89-.4,3.68,3.68,0,0,1,3.17,1.41h.23V11.09h3.27V21.26a7.26,7.26,0,0,1-.42,2.51,5.58,5.58,0,0,1-1.21,2A5.32,5.32,0,0,1,48.07,27,6.4,6.4,0,0,1,45.57,27.48Zm.14-8.35a2.79,2.79,0,0,0,.94-.17,2.75,2.75,0,0,0,.84-.5,2.43,2.43,0,0,0,.6-.83,2.79,2.79,0,0,0,.23-1.16,2.82,2.82,0,0,0-.23-1.16,2.39,2.39,0,0,0-.6-.82,2.7,2.7,0,0,0-3.56,0,2.39,2.39,0,0,0-.6.82,2.82,2.82,0,0,0-.23,1.16,2.79,2.79,0,0,0,.23,1.16,2.43,2.43,0,0,0,.6.83,2.75,2.75,0,0,0,.84.5A2.79,2.79,0,0,0,45.71,19.13Z"/><path class="cls-1" d="M54.13,22.21V6h3.4V22.21Z"/><path class="cls-1" d="M66.63,21.22H66.4a5,5,0,0,1-1.23,1,3.61,3.61,0,0,1-1.78.39,4.34,4.34,0,0,1-1.58-.28,3.82,3.82,0,0,1-1.29-.77,3.4,3.4,0,0,1-.88-1.2,3.8,3.8,0,0,1-.32-1.57,3.54,3.54,0,0,1,.34-1.53A3.62,3.62,0,0,1,60.6,16,4.16,4.16,0,0,1,62,15.27,5.5,5.5,0,0,1,63.75,15a8.85,8.85,0,0,1,1.69.13,9.2,9.2,0,0,1,1.19.32v-.29a1.57,1.57,0,0,0-.6-1.24,2.42,2.42,0,0,0-1.62-.51,3.28,3.28,0,0,0-2.54,1.2L59.55,13a6.06,6.06,0,0,1,2.21-1.69,6.83,6.83,0,0,1,2.78-.56A6.06,6.06,0,0,1,68.65,12,4.62,4.62,0,0,1,70,15.63v6.58h-3.4Zm0-3.39a7.07,7.07,0,0,0-1-.31,4.59,4.59,0,0,0-1.06-.12,2.1,2.1,0,0,0-1.36.38,1.19,1.19,0,0,0-.45,1,1.13,1.13,0,0,0,.43.94,1.7,1.7,0,0,0,1.13.36,2.46,2.46,0,0,0,1-.2,2.22,2.22,0,0,0,.74-.51,2.11,2.11,0,0,0,.44-.71A2.25,2.25,0,0,0,66.63,17.83Z"/><path class="cls-1" d="M72.76,6H83.47V9.32H76.3v3.27h6.44V16H76.3v6.26H72.76Z"/><path class="cls-1" d="M90.14,10.73a6.43,6.43,0,0,1,2.39.44,5.92,5.92,0,0,1,1.91,1.23,5.49,5.49,0,0,1,1.25,1.87,6.68,6.68,0,0,1,0,4.77,5.49,5.49,0,0,1-1.25,1.87,5.73,5.73,0,0,1-1.91,1.22,6.57,6.57,0,0,1-4.78,0,5.73,5.73,0,0,1-1.91-1.22A5.49,5.49,0,0,1,84.59,19a6.68,6.68,0,0,1,0-4.77,5.49,5.49,0,0,1,1.25-1.87,5.92,5.92,0,0,1,1.91-1.23A6.43,6.43,0,0,1,90.14,10.73Zm0,8.67a2.53,2.53,0,0,0,1-.19,2.67,2.67,0,0,0,.83-.55,2.33,2.33,0,0,0,.56-.86,3,3,0,0,0,.21-1.15,2.88,2.88,0,0,0-.21-1.13,2.51,2.51,0,0,0-.56-.86,2.7,2.7,0,0,0-.83-.56,2.67,2.67,0,0,0-2,0,2.7,2.7,0,0,0-.83.56,2.51,2.51,0,0,0-.56.86,2.88,2.88,0,0,0-.21,1.13,3,3,0,0,0,.21,1.15,2.33,2.33,0,0,0,.56.86,2.67,2.67,0,0,0,.83.55A2.53,2.53,0,0,0,90.14,19.4Z"/><path class="cls-1" d="M101,12.5h.22a3.78,3.78,0,0,1,3.41-1.77,3.69,3.69,0,0,1,3.11,1.34,5.66,5.66,0,0,1,1,3.52v6.62h-3.41V16a2.38,2.38,0,0,0-.43-1.48,1.55,1.55,0,0,0-1.34-.58,2,2,0,0,0-1.76.88,4.08,4.08,0,0,0-.6,2.32v5.1h-3.4V11.09H101Z"/><path class="cls-1" d="M111.86,14h-2V11.09h2V7.69h3.4v3.4H118V14h-2.74v3.88a2.5,2.5,0,0,0,.09.69,1.15,1.15,0,0,0,.32.53,1.27,1.27,0,0,0,.88.3,1.89,1.89,0,0,0,.62-.09,1.74,1.74,0,0,0,.43-.22l1,2.95a7,7,0,0,1-1.27.43,6.71,6.71,0,0,1-1.45.16,3.59,3.59,0,0,1-3.68-2.45,5.27,5.27,0,0,1-.29-1.82Z"/><path class="cls-2" d="M126.74,22.58a7.43,7.43,0,0,1-2.68-.47,5.44,5.44,0,0,1-2-1.37,6.2,6.2,0,0,1-1.29-2.21,8.9,8.9,0,0,1-.46-3V6h3.54v9.8a3.93,3.93,0,0,0,.75,2.47,2.91,2.91,0,0,0,4.36,0,3.93,3.93,0,0,0,.75-2.47V6h3.54v9.57a8.34,8.34,0,0,1-.46,2.84,6.42,6.42,0,0,1-1.29,2.22,5.75,5.75,0,0,1-2,1.45A6.64,6.64,0,0,1,126.74,22.58ZM136.11,6h3.54V22.21h-3.54Z"/></svg>