<svg id="Layer_1" data-name="Layer 1" xmlns="http://www.w3.org/2000/svg" xmlns:xlink="http://www.w3.org/1999/xlink" viewBox="0 0 512 512"><defs><style>.cls-1{fill:url(#linear-gradient);}</style><linearGradient id="linear-gradient" x1="460.03" y1="403.07" x2="4.57" y2="140.11" gradientUnits="userSpaceOnUse"><stop offset="0" stop-color="#ff0f11"/><stop offset="1" stop-color="#c60b0d"/></linearGradient></defs><path class="cls-1" d="M81,7.7H283.89q33.47,0,62.39,10.45T396.13,46a128.56,128.56,0,0,1,32.76,40.78,105.83,105.83,0,0,1,11.85,48.45q0,41.14-19.86,68.32T373.82,244v7q39.74,14.64,62.39,44.61t22.66,73.9q0,32.07-12.9,57.52a127.74,127.74,0,0,1-35.55,43.22Q387.76,488,356.74,497.44t-67.28,9.41H81Zm192.41,198q29.28,0,45.31-13.24t16-37.65q0-24.39-16-37.64T276.22,103.9H189.77V205.68Zm9.06,203.57q67.62,0,67.63-55.77t-70.41-55.77H189.77V409.25Z"/></svg>