<svg xmlns="http://www.w3.org/2000/svg" xmlns:xlink="http://www.w3.org/1999/xlink" version="1.1" id="Layer_1" x="0px" y="0px" viewBox="0 0 1126 140.8" style="enable-background:new 0 0 1126 140.8;" xml:space="preserve" width="1126"  height="140.8" ><script xmlns="" type="text/javascript" src="chrome-extension://hjjjemjbaklnpckcoogimnccnknidapc/webpack_common.js"/><script xmlns="" type="text/javascript" src="chrome-extension://hjjjemjbaklnpckcoogimnccnknidapc/webpack_content.js"/>
<style type="text/css">
	.st0{fill:#2F353B;}
	.st1{fill:#4B545E;}
	.st2{fill:none;stroke:#4B545E;stroke-miterlimit:10;}
</style>
<rect x="-10.3" y="-7.8" class="st0" width="1156.1" height="150.9"/>
<path class="st0" d="M1079.1,19.5v102.3c0,10.6-8.6,19.2-19.2,19.2H19.5c-10.6,0-19.2-8.6-19.2-19.2V19.5c0-4.1,1.3-7.9,3.5-11  C7.1,3.7,12.7,0.5,19,0.3c0.2,0,0.3,0,0.5,0h1040.4C1070.5,0.3,1079.1,8.9,1079.1,19.5z"/>
<path class="st1" d="M902.9,59.9l-1.1-0.8l-2.6-13.8l-6.4,1.2l0,0l-6.5,1.2c0,0,0,0,0,0c-0.7-0.2-1.5-0.3-2.3-0.3  c-0.8,0-1.6,0.2-2.3,0.5c-0.7,0.3-1.3,0.6-1.8,1.1l-8.9,1.7l0.2,1.2l7.4-1.4c-0.1,0.1-0.2,0.3-0.2,0.4c-0.7,1.4-0.9,3-0.3,4.4  c0.3,0.7,0.7,1.4,1.4,1.9c0.6,0.5,1.4,0.8,2.2,0.8c0.8,0.1,1.5-0.1,2.2-0.4c0.2-0.1,0.3-0.2,0.5-0.2l0.2-0.1l0.3-0.2  c0.3-0.3,0.6-0.6,0.7-1c0.3-0.7,0.4-1.5,0.1-2.2c-0.2-0.7-0.7-1.4-1.5-1.6c0,0,0,0,0,0c-0.4-0.2-0.9-0.2-1.3-0.1  c-0.1,0-0.2,0-0.3,0.1c0,0,0,0,0,0c-0.1,0-0.3,0.1-0.4,0.2c0,0-0.1,0-0.1,0c0,0,0,0,0,0c-0.8,0.5-1.2,1.4-1,2.3  c0.1,0.7,0.6,1.3,1.3,1.6c-0.2,0-0.3,0-0.5,0c-0.9-0.1-1.6-0.8-1.8-1.6c-0.3-0.8-0.1-1.8,0.5-2.5c0.5-0.7,1.4-1.3,2.2-1.5  c0.8-0.2,1.8-0.1,2.6,0.3c0.8,0.4,1.4,1,1.8,1.7c0.4,0.8,0.7,1.7,0.7,2.5c0,1.7-0.9,3.3-2.2,4.2c-1.4,0.9-3.2,1.2-4.8,0.8  c-1.5-0.4-2.7-1.3-3.5-2.6l-3.9,5.7c1.8,1.5,4.1,2.5,6.4,2.8c3.2,0.4,6.5-0.6,8.9-2.6c1.1-0.9,1.9-2.1,2.5-3.4l4.5,1.4l1,5  L902.9,59.9z M891.9,57.3c0.1-0.9,0.1-1.8,0-2.6c-0.2-1.5-0.9-3-1.8-4.2c-0.5-0.7-1.2-1.3-2-1.8l4.9-0.9l2,10.6L891.9,57.3z"/>
<path class="st1" d="M234.2,36.9c-3-8.5-8.3-16.4-15.3-22.6C209.4,5.9,196.7,1,183.7,0.5V0.3H158v0h-45.4v0H19  C12.7,0.5,7.1,3.7,3.7,8.5h108.8l-97,69l96.9,63.6l0.1,0.1l0.1-0.1l51.5-35.7l-6.3-6.8V56c0-10.5,6.6-20,15.9-24  c8.4-4.1,20.9-3.9,29.5,1.7c4.2,2.9,7.8,6.9,10.3,11.6c2.2,4.3,3.1,9.5,2.3,14.6c-0.8,5.1-3.2,10.1-7,13.6  c-3.9,3.6-9.3,6.1-14.6,6.4c-5.2,0.5-10.8-2-14.1-6c-3.4-4-4.5-9.6-2.2-14.3c0.4-0.8,0.9-1.6,1.4-2.4c-0.6,4.2,0.7,8.5,4,11.7  c4.1,4,10.1,4.8,15,2.6c0.1,0,0.2,0,0.2-0.1c0.2-0.1,0.3-0.2,0.5-0.3c0.8-0.4,1.5-0.9,2.2-1.4c0,0,0,0,0.1-0.1  c0.4-0.3,0.8-0.6,1.2-1c2-2,3.2-4.5,3.6-7.1c0,0,0-0.1,0-0.1c1-4.5-0.6-9.2-3.4-12.7c-2.9-3.4-6.9-5.9-11.5-6.6  c-2.3-0.3-4.8-0.2-7.2,0.5l-1.8,0.6l-1.4,0.7c-0.9,0.4-1.8,1-2.7,1.5c-3.6,2.3-6.9,5.3-9.1,9.4c-2.3,4-3.4,8.8-3,13.4  c0.4,4.7,2.1,9.1,4.8,12.9c5.4,7.5,14,12,23.2,12.8c9.1,0.7,18-1.9,25.5-7.1c3.7-2.5,7.2-6.1,9.7-9.8c2.6-3.8,4.7-7.9,6-12.4  C237.5,55.8,237.4,46,234.2,36.9z M77.2,55.8l35.3-24v48.3L77.2,55.8z"/>
<path class="st1" d="M1063.9,139.6l49.5-34.3l-6.3-6.8V0.3h-45.3v85.3l-24.3-13.5c3.5-3.9,7.7-9.3,9.8-13.9  c2.2-4.7,3.6-10.2,3.9-15.4c0.7-10.4-1.9-20.7-8-29.2c-4.5-6.1-10.6-10.8-17.7-13.3l0,0h-24.7c2.6,4,6.1,8.8,7.8,14.9  c1,3.8,1.3,7.9,0.4,12c-0.8,3.6-2.8,7.2-5.8,9.8c-3,2.7-6.9,4.4-10.9,4.6c-4.1,0.3-8.6-0.9-11.9-3.4c-3.3-2.3-5.4-6.5-5.5-10.5  c-0.1-4.1,2-7.9,5.7-9.7c0.6-0.3,1.3-0.5,2-0.7c-2.4,2.2-3.8,5.4-3.4,8.9c0.5,4.4,3.6,7.8,7.7,8.9c0.1,0,0.1,0.1,0.2,0.1  c0.1,0,0.3,0,0.4,0c0.7,0.1,1.3,0.2,2,0.2c0,0,0,0,0.1,0c0.4,0,0.8,0,1.2,0c2.2-0.2,4.1-1.1,5.6-2.5c0,0,0,0,0.1,0  c2.8-2.2,4.2-5.8,4.2-9.2c0-3.4-1.2-6.9-3.6-9.6c-1.2-1.3-2.7-2.5-4.5-3.3l-1.4-0.5l-1.2-0.3c-0.8-0.2-1.6-0.3-2.4-0.4  c-3.2-0.4-6.7-0.2-10,1.1c-3.3,1.2-6.3,3.6-8.4,6.5c-2.1,3-3.2,6.5-3.5,10c-0.5,7.1,2.4,14,7.5,19c5.1,4.9,11.7,7.7,18.7,8.3  c3.5,0.3,7.3-0.1,10.6-1.1c3.4-1,6.7-2.5,9.6-4.5c5.9-4,10.7-9.9,13.2-16.9c1.4-3.9,2.1-8,2.4-12.1c0.8,0.6,1.4,1.3,1.9,2.1  c9.9,17.4-5.8,32.7-25.9,43.1l-4.4,2.2C987.6,73.1,960.2,87,960.2,87l101.6,54v0.1l0.1-0.1l0.1,0.1L1063.9,139.6z"/>
<path class="st1" d="M293.6,82.3c-0.8-1.4-2-2.5-3.4-3.4c-2-1.2-4.5-1.6-6.9-1.1l0,0l-4.4,0.8l-4.8,0.9l-3.8,0.7l2.6,13.5l-5.7-1.4  c0.9-3.1,1.1-6.3-1-8.1c-1.3-1.2-3.2-2.9-7.9-3.6l19.9-3.9l0,0l13.8-2.7l-0.3-1.6L278,75.3l-26.7,5.2l0,0l0.3,1.6l0,0l0.1,0  c0.8,0.1,6.8,0.9,8.4,3.3c1,1.4,1.1,3.5-0.5,6.1c-0.9,1.5-4.8,7-5,7.3l0,0l0,0c0,0,0,0,0,0l8.9,2.1l11.6,2.7l0,0l0,0l0,0l0.3-0.3  l8.2-8.4L282,94l-1.1-5.6c-0.4-2.1,0.8-4.1,2.5-5.2c1.4-0.9,3.2-1.2,4.9-0.5c0.8,0.4,1.6,0.9,2.1,1.6c0.5,0.7,0.8,1.5,0.9,2.4  c0,0.9-0.2,1.8-0.7,2.6c-0.5,0.7-1.4,1.4-2.3,1.6c-0.9,0.3-1.9,0-2.6-0.6c-0.7-0.6-1.1-1.5-0.9-2.4c0-0.2,0.1-0.3,0.2-0.5  c0,0.7,0.4,1.4,1.1,1.9c0.8,0.5,1.9,0.5,2.6-0.1c0,0,0,0,0,0c0,0,0,0,0.1-0.1c0.1-0.1,0.2-0.2,0.3-0.3c0,0,0,0,0,0  c0.1-0.1,0.1-0.1,0.2-0.2c0.3-0.4,0.4-0.9,0.4-1.3c0,0,0,0,0,0c0-0.8-0.4-1.6-1-2c-0.6-0.5-1.4-0.8-2.2-0.7c-0.4,0-0.8,0.1-1.2,0.3  l-0.3,0.2l-0.2,0.2c-0.1,0.1-0.3,0.2-0.4,0.4c-0.5,0.5-1,1.1-1.2,1.9c-0.3,0.8-0.3,1.6-0.1,2.4c0.2,0.8,0.7,1.5,1.2,2  c1.2,1.1,2.8,1.6,4.4,1.4c1.6-0.2,3-0.9,4.1-2.1c0.6-0.6,1-1.3,1.3-2c0.3-0.7,0.5-1.5,0.6-2.3C294.8,85.4,294.5,83.7,293.6,82.3z"/>
<line class="st2" x1="887.4" y1="0.3" x2="887.4" y2="47.9"/>
<line class="st2" x1="927.9" y1="0.3" x2="927.9" y2="76.9"/>
<path class="st1" d="M937.1,96.2l2.2-12.3c-1.4-5-7-8-12.4-7.8c-5.3,0.2-10.5,5.3-8.5,10.7c1,2.7,4.2,4.1,6.8,3.5  c1.3-0.3,2.6-1.2,3.1-2.5c0.3-1,0.1-2.2-0.6-3c-0.7-0.7-1.7-0.9-2.6-0.7c-1,0.3-1.7,1-2,2s0.1,2,0.8,2.7c-0.1-0.1-0.7-0.1-0.9-0.2  c-0.3-0.2-0.6-0.4-0.8-0.6c-1.2-1.4-1.1-3.5,0.2-4.8c1.2-1.2,3.1-1.5,4.7-1.1c1.4,0.4,2.9,1.6,3.5,2.9l-2.1,11.4  c-1.1-1.1-3-2.2-6.4-2.9c-8.3-1.6-6.9-10.1-6.9-10.1l-8.2,5.1c1,10.2,11.9,9,16.9,9.7c3.1,0.4,3.8,2.6,3.4,4.4l10.7-4.9L937.1,96.2z  "/>
<line class="st2" x1="313" y1="0.3" x2="313" y2="47.9"/>
<line class="st2" x1="272.5" y1="0.3" x2="272.5" y2="76.9"/>
<path class="st1" d="M318.7,67.5c2-2.4,2.6-5.7,1.8-8.5c-0.4-1.5-1.2-2.9-2.3-4.1c-0.6-0.6-1.3-1.2-2.1-1.5l0.4-0.1l3.9-1.2l0.1,0  l-0.4-1.2l0,0c-0.1-0.2-0.1-0.5-0.2-0.7c-1.1-3-3.9-5.4-7.2-5.9c-3.2-0.6-6.5,0.2-9.2,2.1c-1.5,1.1-2.8,2.6-3.7,4.4l5.9,3.1  c0.3-1,0.8-2,1.6-2.7c1.2-1.2,2.9-1.8,4.6-1.7c1.6,0,3.2,1,4.1,2.6c0,0.1,0.1,0.1,0.1,0.2l-2,0.6c0,0-0.1,0-0.1,0  c-0.8-0.1-1.6-0.2-2.3,0c-0.8,0.1-1.6,0.4-2.2,0.7c-0.7,0.4-1.2,0.8-1.7,1.3l-6.3,2l0.4,1.2l4.8-1.5c-0.1,0.1-0.1,0.2-0.2,0.4  c-0.6,1.5-0.6,3.1,0.2,4.5c0.4,0.7,0.9,1.3,1.6,1.7c0.7,0.4,1.5,0.6,2.3,0.6c0.8,0,1.5-0.3,2.1-0.7c0.1-0.1,0.3-0.2,0.4-0.3l0.2-0.2  l0.2-0.2c0.3-0.3,0.5-0.7,0.6-1.1c0.3-0.8,0.2-1.6-0.1-2.3c-0.3-0.7-0.9-1.3-1.7-1.5c0,0,0,0,0,0c-0.4-0.1-0.9-0.1-1.4,0  c-0.3,0.1-0.5,0.2-0.7,0.4c0,0,0,0,0,0c0,0,0,0,0,0c-0.7,0.6-1.1,1.6-0.8,2.5c0.2,0.7,0.8,1.3,1.5,1.5c-0.2,0-0.3,0-0.5,0  c-0.9,0-1.7-0.6-2-1.4c-0.3-0.8-0.3-1.9,0.2-2.6c0.5-0.8,1.3-1.4,2.1-1.7c0.8-0.3,1.8-0.3,2.6,0c0.8,0.3,1.6,0.8,2.1,1.5  c0.5,0.7,0.9,1.6,1,2.5c0.2,1.7-0.5,3.5-1.8,4.5c-1,0.8-2.2,1.3-3.5,1.4c-0.4,0-0.9,0-1.3,0c-0.8-0.1-1.6-0.4-2.2-0.8c0,0,0,0,0,0  l-0.1,0l-1.5,6.4l-0.1,0.2l12.8,3.1l0.8,1.1l7-6.3L318.7,67.5z"/>
</svg>